HIERARCHY
ROOT Hips
{
	OFFSET 0.00000 0.00000 0.00000
	CHANNELS 6 Xposition Yposition Zposition Zrotation Yrotation Xrotation 
	JOINT LHipJoint
	{
		OFFSET 0 0 0
		CHANNELS 3 Zrotation Yrotation Xrotation
		JOINT LeftUpLeg
		{
			OFFSET 1.29432 -1.88279 0.59910
			CHANNELS 3 Zrotation Yrotation Xrotation
			JOINT LeftLeg
			{
				OFFSET 2.63039 -7.22694 0.00000
				CHANNELS 3 Zrotation Yrotation Xrotation
				JOINT LeftFoot
				{
					OFFSET 2.70674 -7.43672 0.00000
					CHANNELS 3 Zrotation Yrotation Xrotation
					JOINT LeftToeBase
					{
						OFFSET 0.15066 -0.41394 2.09027
						CHANNELS 3 Zrotation Yrotation Xrotation
						End Site
						{
							OFFSET 0.00000 -0.00000 1.07518
						}
					}
				}
			}
		}
	}
	JOINT RHipJoint
	{
		OFFSET 0 0 0
		CHANNELS 3 Zrotation Yrotation Xrotation
		JOINT RightUpLeg
		{
			OFFSET -1.37068 -1.88279 0.59910
			CHANNELS 3 Zrotation Yrotation Xrotation
			JOINT RightLeg
			{
				OFFSET -2.57023 -7.06166 0.00000
				CHANNELS 3 Zrotation Yrotation Xrotation
				JOINT RightFoot
				{
					OFFSET -2.76461 -7.59570 0.00000
					CHANNELS 3 Zrotation Yrotation Xrotation
					JOINT RightToeBase
					{
						OFFSET -0.24175 -0.64785 2.19719
						CHANNELS 3 Zrotation Yrotation Xrotation
						End Site
						{
							OFFSET -0.00000 -0.00000 1.14803
						}
					}
				}
			}
		}
	}
	JOINT LowerBack
	{
		OFFSET 0 0 0
		CHANNELS 3 Zrotation Yrotation Xrotation
		JOINT Spine
		{
			OFFSET -0.03138 2.03983 -0.23106
			CHANNELS 3 Zrotation Yrotation Xrotation
			JOINT Spine1
			{
				OFFSET -0.00325 2.06238 -0.06878
				CHANNELS 3 Zrotation Yrotation Xrotation
				JOINT Neck
				{
					OFFSET 0 0 0
					CHANNELS 3 Zrotation Yrotation Xrotation
					JOINT Neck1
					{
						OFFSET -0.00002 1.75318 0.18090
						CHANNELS 3 Zrotation Yrotation Xrotation
						JOINT Head
						{
							OFFSET 0.08806 1.75856 -0.25387
							CHANNELS 3 Zrotation Yrotation Xrotation
							End Site
							{
								OFFSET 0.02554 1.78597 -0.10684
							}
						}
					}
				}
				JOINT LeftShoulder
				{
					OFFSET 0 0 0
					CHANNELS 3 Zrotation Yrotation Xrotation
					JOINT LeftArm
					{
						OFFSET 3.09657 1.33597 -0.04414
						CHANNELS 3 Zrotation Yrotation Xrotation
						JOINT LeftForeArm
						{
							OFFSET 5.34298 -0.00000 -0.00000
							CHANNELS 3 Zrotation Yrotation Xrotation
							JOINT LeftHand
							{
								OFFSET 3.67262 -0.00000 -0.00000
								CHANNELS 3 Zrotation Yrotation Xrotation
								JOINT LeftFingerBase
								{
									OFFSET 0 0 0
									CHANNELS 3 Zrotation Yrotation Xrotation
									JOINT LeftHandIndex1
									{
										OFFSET 0.59930 -0.00000 -0.00000
										CHANNELS 3 Zrotation Yrotation Xrotation
										End Site
										{
											OFFSET 0.48317 -0.00000 -0.00000
										}
									}
								}
								JOINT LThumb
								{
									OFFSET 0 0 0
									CHANNELS 3 Zrotation Yrotation Xrotation
									End Site
									{
										OFFSET 0.49055 -0.00000 0.49055
									}
								}
							}
						}
					}
				}
				JOINT RightShoulder
				{
					OFFSET 0 0 0
					CHANNELS 3 Zrotation Yrotation Xrotation
					JOINT RightArm
					{
						OFFSET -3.16460 1.32273 -0.23382
						CHANNELS 3 Zrotation Yrotation Xrotation
						JOINT RightForeArm
						{
							OFFSET -5.54967 -0.01834 0.03348
							CHANNELS 3 Zrotation Yrotation Xrotation
							JOINT RightHand
							{
								OFFSET -3.69401 -0.00000 0.00000
								CHANNELS 3 Zrotation Yrotation Xrotation
								JOINT RightFingerBase
								{
									OFFSET 0 0 0
									CHANNELS 3 Zrotation Yrotation Xrotation
									JOINT RightHandIndex1
									{
										OFFSET -0.63811 -0.00000 0.00000
										CHANNELS 3 Zrotation Yrotation Xrotation
										End Site
										{
											OFFSET -0.51446 -0.00000 0.00000
										}
									}
								}
								JOINT RThumb
								{
									OFFSET 0 0 0
									CHANNELS 3 Zrotation Yrotation Xrotation
									End Site
									{
										OFFSET -0.52232 -0.00000 0.52232
									}
								}
							}
						}
					}
				}
			}
		}
	}
}
MOTION
Frames: 11
Frame Time: .0083333
9.6543 20.3633 11.3826 -70.7729 -94.4976 73.6097 0.0000 0.0000 0.0000 -13.0947 -6.0133 -8.0316 2.5990 10.0158 29.0279 -0.0728 5.0804 -3.6904 0.0699 -1.7057 -4.6930 0.0000 0.0000 0.0000 7.2054 16.6378 -12.0675 -3.8690 -11.9840 35.6755 0.0464 6.2281 -2.9718 -2.0657 9.0017 -25.8005 -3.4019 -2.4109 1.1033 -1.0085 -3.3248 -1.4715 0.9574 -1.6240 -1.9965 -8.1733 -6.8712 -10.0856 10.4576 -9.6695 11.8832 3.7896 -4.4066 6.1698 0.0000 0.0000 0.0000 -21.7050 13.0101 -8.3874 36.1151 -45.5922 -15.6047 -0.0000 0.0000 -19.2347 14.5633 34.5410 8.3796 -7.1250 0.0000 -0.0000 -23.1038 63.9574 -10.8994 0.0000 0.0000 0.0000 22.6993 2.6981 -28.5434 -27.5655 38.7131 -9.8507 0.0000 -0.0000 -8.0666 -33.9850 24.6767 -15.7191 7.1250 -0.0000 -0.0000 -2.7044 -1.0171 -2.6590
9.6837 20.3818 11.4220 -70.5885 -94.7735 73.6178 0.0000 0.0000 0.0000 -13.9225 -5.8048 -8.6743 2.7159 10.2203 29.6930 -0.0229 3.1695 -2.9481 0.1339 -2.3586 -6.4977 0.0000 0.0000 0.0000 7.7598 16.1552 -12.8676 -4.0206 -12.1878 36.3997 0.0755 6.8835 -2.6769 -1.5035 7.7447 -21.9414 -3.4214 -2.3420 0.9823 -1.2301 -3.2322 -1.3927 0.7317 -1.5833 -1.8630 -8.1112 -6.9607 -10.5808 10.3454 -9.7844 12.2470 3.7153 -4.4446 6.3721 0.0000 0.0000 0.0000 -24.2938 12.9592 -8.6243 34.9220 -44.7564 -14.7584 -0.0000 0.0000 -18.4913 14.5106 34.2528 8.2881 -7.1250 0.0000 -0.0000 -22.8690 63.6827 -10.6363 0.0000 0.0000 0.0000 25.4959 2.2421 -27.6242 -26.9901 38.1698 -9.4930 0.0000 -0.0000 -8.5549 -33.5040 24.8296 -15.5350 7.1250 -0.0000 -0.0000 -2.3892 -0.9765 -2.3502
9.7133 20.3807 11.4576 -67.5536 -94.9213 70.8962 0.0000 0.0000 0.0000 -14.4967 -5.5054 -9.4633 2.8466 10.4425 30.4218 0.0047 1.0564 -2.0973 0.2169 -2.9980 -8.2732 0.0000 0.0000 0.0000 8.5638 16.3790 -13.5321 -4.1669 -12.3793 37.0873 0.0906 7.4193 -2.7945 -0.9330 6.1528 -17.2285 -3.3123 -2.0890 0.6950 -1.4081 -2.8820 -1.3108 0.4679 -1.4163 -1.6446 -8.0192 -7.1205 -10.9882 10.4030 -10.0281 12.5027 3.6789 -4.5368 6.5460 -0.0000 -0.0000 0.0000 -26.8714 12.4038 -8.9510 33.7473 -43.8966 -13.9376 -0.0000 0.0000 -17.5623 13.8001 33.9253 7.8058 -7.1250 0.0000 -0.0000 -23.3183 63.1995 -10.5932 -0.0000 -0.0000 0.0000 28.4817 1.4903 -27.3242 -26.5683 37.7644 -9.2335 0.0000 -0.0000 -8.7575 -32.7410 25.1845 -15.3026 7.1250 -0.0000 -0.0000 -1.8698 -0.7859 -1.8450
9.7397 20.3580 11.4929 -65.0537 -95.3015 68.6187 0.0000 0.0000 0.0000 -15.3252 -5.0679 -10.1599 2.9771 10.6579 31.1346 0.0043 -0.9173 -1.2386 0.2622 -3.2944 -9.0995 0.0000 0.0000 0.0000 9.1528 16.5134 -14.1000 -4.3111 -12.5633 37.7551 0.1244 8.2189 -2.6999 -0.6006 4.9609 -13.7969 -3.5776 -1.8815 0.4553 -1.5108 -2.5982 -1.2260 0.4948 -1.2769 -1.4255 -8.1503 -7.2318 -11.2109 10.5503 -10.1721 12.5524 3.7239 -4.5928 6.6296 0.0000 -0.0000 0.0000 -29.6027 12.2940 -8.6323 32.8837 -43.2405 -13.3423 -0.0000 0.0000 -16.9222 13.2330 33.7904 7.4511 -7.1250 0.0000 -0.0000 -23.7993 62.9306 -10.6743 0.0000 -0.0000 0.0000 31.1902 0.9957 -26.9138 -25.9572 37.1664 -8.8618 0.0000 -0.0000 -8.8893 -33.3279 25.9409 -16.0480 7.1250 -0.0000 -0.0000 -2.0781 0.2109 -2.0871
9.7650 20.3368 11.5354 -64.3822 -95.6115 68.0543 0.0000 0.0000 0.0000 -16.1651 -4.7266 -10.7659 3.1256 10.8956 31.9287 -0.0172 -2.6846 -0.4452 0.2670 -3.3241 -9.1825 0.0000 0.0000 0.0000 9.6371 15.7711 -14.8706 -4.4591 -12.7475 38.4304 0.2111 9.5584 -1.8924 -0.9611 6.2424 -17.4893 -3.7816 -1.9198 0.4421 -1.4728 -2.6490 -1.1909 0.6465 -1.3008 -1.3696 -8.4699 -7.1743 -11.4612 10.4981 -10.0166 12.6866 3.7687 -4.5234 6.7136 -0.0000 -0.0000 0.0000 -32.6238 12.8087 -8.4872 32.0666 -42.6002 -12.7859 -0.0000 0.0000 -16.4022 13.0334 33.8177 7.3411 -7.1250 0.0000 -0.0000 -24.0412 62.9035 -10.7741 -0.0000 -0.0000 0.0000 33.5898 1.0912 -26.0643 -25.4633 36.6738 -8.5651 0.0000 -0.0000 -9.2877 -33.6341 25.2133 -15.8223 7.1250 -0.0000 -0.0000 -2.3957 -0.5134 -2.3762
9.7884 20.3111 11.5769 -63.2114 -95.6912 67.0264 0.0000 0.0000 0.0000 -16.6854 -4.4119 -11.4217 3.2928 11.1546 32.8031 -0.0598 -4.5354 0.2301 0.1808 -2.7387 -7.5522 0.0000 0.0000 0.0000 10.3641 15.0561 -15.6872 -4.6194 -12.9420 39.1516 0.2980 10.7739 -1.2215 -0.9581 6.2328 -17.4615 -3.6248 -1.9686 0.4695 -1.5182 -2.7152 -1.2009 0.5150 -1.3355 -1.4019 -8.3480 -7.0558 -11.6421 10.3175 -9.8293 12.7090 3.7072 -4.4330 6.7174 -0.0000 0.0000 0.0000 -35.3499 13.2351 -8.5705 31.1868 -41.8892 -12.1944 -0.0000 0.0000 -15.7578 12.8496 33.9421 7.2583 -7.1250 0.0000 -0.0000 -24.3621 62.9675 -10.9635 -0.0000 0.0000 0.0000 36.2785 1.2647 -25.5365 -24.9002 36.1019 -8.2311 0.0000 -0.0000 -8.9667 -34.0032 25.1089 -15.9741 7.1250 -0.0000 -0.0000 -2.6343 -0.5284 -2.6127
9.8204 20.2422 11.6172 -61.0887 -95.9652 64.9740 0.0000 0.0000 0.0000 -17.2911 -3.8721 -12.0435 3.4564 11.3995 33.6394 -0.1189 -6.1950 1.1330 0.1048 -2.0876 -5.7479 0.0000 0.0000 0.0000 11.0587 14.6202 -16.3335 -4.7954 -13.1496 39.9310 0.3615 11.5757 -0.7506 -0.9733 6.2807 -17.6011 -3.6723 -1.8812 0.6084 -1.6380 -2.6100 -1.1952 0.4225 -1.2829 -1.4813 -7.9882 -6.9464 -11.6673 10.1246 -9.6901 12.5405 3.6028 -4.3644 6.6264 0.0000 0.0000 0.0000 -37.9400 13.3627 -8.6488 30.2437 -41.1013 -11.5695 -0.0000 0.0000 -15.2043 12.4773 33.9671 7.0478 -7.1250 0.0000 -0.0000 -24.7865 62.8934 -11.1236 0.0000 0.0000 0.0000 38.9502 1.3522 -25.3687 -24.2599 35.4379 -7.8567 0.0000 -0.0000 -8.6109 -34.1747 25.4860 -16.2856 7.1250 -0.0000 -0.0000 -2.6644 -0.0595 -2.6645
9.8589 20.1584 11.6623 -59.2087 -96.3567 63.1639 0.0000 0.0000 0.0000 -17.9949 -3.1592 -12.7473 3.6239 11.6424 34.4783 -0.1759 -7.4251 2.2746 0.0735 -1.7495 -4.8137 0.0000 0.0000 0.0000 11.5870 14.1298 -17.0298 -4.9826 -13.3642 40.7475 0.4290 12.4033 -0.3612 -1.2425 7.0680 -19.9170 -3.7720 -1.7422 0.8466 -1.7801 -2.4466 -1.2569 0.3397 -1.1986 -1.6864 -7.6374 -6.8594 -11.7073 9.8005 -9.5818 12.6118 3.4531 -4.3168 6.6114 0.0000 0.0000 0.0000 -40.5025 13.4474 -8.5406 29.3284 -40.3107 -10.9725 -0.0000 0.0000 -14.9882 12.3580 33.7241 6.9354 -7.1250 0.0000 -0.0000 -24.6736 62.6458 -10.9260 0.0000 0.0000 0.0000 41.6015 1.0816 -24.8832 -23.7668 34.9167 -7.5727 0.0000 -0.0000 -8.8808 -34.1523 25.5730 -16.3217 7.1250 -0.0000 -0.0000 -2.6345 0.0313 -2.6387
9.8889 20.1029 11.6985 -58.1465 -96.8554 62.2789 0.0000 0.0000 0.0000 -18.7688 -2.2647 -13.5920 3.8031 11.8936 35.3567 -0.2285 -8.4477 3.4554 0.0333 -1.1783 -3.2395 0.0000 0.0000 0.0000 11.8621 14.3350 -17.5396 -5.1585 -13.5601 41.5030 0.4577 12.6171 0.1255 -1.0285 6.4510 -18.0987 -4.0947 -1.5992 0.9085 -1.9550 -2.2761 -1.3198 0.3398 -1.1105 -1.7871 -7.3090 -6.7973 -11.8884 9.4184 -9.4940 12.7900 3.2816 -4.2781 6.6554 0.0000 0.0000 0.0000 -43.0235 13.4735 -8.5375 28.4381 -39.5165 -10.4013 -0.0000 0.0000 -14.3944 11.9856 33.5498 6.6918 -7.1250 0.0000 -0.0000 -24.9001 62.3954 -10.8860 0.0000 0.0000 0.0000 44.3316 0.7683 -24.3572 -23.3614 34.4816 -7.3419 0.0000 -0.0000 -9.4423 -33.9191 25.1037 -15.9232 7.1250 -0.0000 -0.0000 -2.5855 -0.5575 -2.5628
9.9176 20.0326 11.7286 -56.1246 -97.0252 60.3816 0.0000 0.0000 0.0000 -19.0891 -1.3557 -14.3838 3.9863 12.1422 36.2369 -0.2622 -9.1314 4.7743 0.0171 -0.8437 -2.3188 0.0000 0.0000 0.0000 12.5798 14.7215 -17.7972 -5.3041 -13.7183 42.1206 0.4369 12.2126 0.4780 -0.4080 4.1006 -11.3598 -4.3049 -1.5375 0.8891 -1.9242 -2.1929 -1.2568 0.4849 -1.0679 -1.7057 -7.1281 -6.6691 -12.0891 9.1981 -9.2904 12.7309 3.1995 -4.1808 6.6335 0.0000 0.0000 0.0000 -45.6937 13.4436 -9.0252 27.4400 -38.5956 -9.7724 -0.0000 0.0000 -13.5000 11.4396 33.6054 6.3903 -7.1250 0.0000 -0.0000 -25.5337 62.3064 -11.1288 0.0000 0.0000 0.0000 46.8217 0.9303 -24.0463 -22.8168 33.8879 -7.0359 0.0000 -0.0000 -9.7835 -33.8554 24.8003 -15.7161 7.1250 -0.0000 -0.0000 -2.6041 -0.9141 -2.5649
9.9477 19.9505 11.7684 -53.5087 -96.6744 57.7946 0.0000 0.0000 0.0000 -18.8391 -1.0081 -14.9034 4.1639 12.3753 37.0730 -0.2498 -9.1576 5.9914 0.0027 -0.3383 -0.9296 0.0000 0.0000 0.0000 13.8573 14.5916 -18.0194 -5.4345 -13.8570 42.6677 0.4007 11.6242 0.7155 -0.6824 5.2818 -14.7140 -3.8121 -1.5969 0.9827 -1.7970 -2.2571 -1.1560 0.3435 -1.1047 -1.6646 -7.0382 -6.5028 -12.2450 9.1635 -9.0500 12.6172 3.1972 -4.0592 6.5977 -0.0000 -0.0000 0.0000 -48.2920 13.5476 -9.4951 26.3960 -37.5971 -9.1282 -0.0000 0.0000 -12.9078 11.2252 33.5378 6.2574 -7.1250 0.0000 -0.0000 -25.6941 62.1922 -11.1344 -0.0000 -0.0000 0.0000 49.4206 1.1130 -23.6121 -22.3131 33.3291 -6.7571 0.0000 -0.0000 -9.8929 -34.0163 24.7882 -15.8000 7.1250 -0.0000 -0.0000 -2.7023 -0.8837 -2.6633
